<?xml version="1.0" encoding="utf-8"?>
<!-- Generator: Adobe Illustrator 23.0.1, SVG Export Plug-In . SVG Version: 6.00 Build 0)  -->
<svg version="1.1" id="Layer_1" xmlns:svg="http://www.w3.org/2000/svg"
	 xmlns="http://www.w3.org/2000/svg" xmlns:xlink="http://www.w3.org/1999/xlink" x="0px" y="0px" viewBox="0 0 134.2 134.3"
	 style="enable-background:new 0 0 134.2 134.3;" xml:space="preserve">
<style type="text/css">
	.st0{opacity:0.12;}
	.st1{fill:url(#SVGID_1_);}
</style>
<g>
	<g class="st0">
		<path d="M128.9,70.9l0-4.2l-10.6,0l6.9-6.2l-2.8-3.1L112,66.6l-8.1,0l10-9l-2.8-3.1L97.6,66.7l-5.3,0c-0.4-0.3-1-0.8-1.6-1.5
			c-0.9-0.9-1.8-2-2.5-3.2l9.5-4.1c1.2,0.9,3,0.8,4.1-0.3c1.2-1.2,1.2-3.2,0-4.5c-1.2-1.2-3.2-1.2-4.5,0c-0.5,0.5-0.8,1.2-0.9,1.9
			l-9.5,4.1c-0.5-1.8-0.4-3.8,0.7-5.9l3.3-3.3l16.9-2.3l-0.6-4.2L95.8,45l5.7-5.7l12.3-1.7l-0.6-4.2l-6.8,0.9l6.5-6.5l-3-3l-7,7
			l0.5-8.5l-4.2-0.2l-0.7,13.3l-5.7,5.7l0.7-12.7l-4.2-0.2l-1,17.4l-2.1,2.1l-0.8,0.5c-0.2,0.1-3.7,2.2-7.4,1.8L81,39
			c0.5-0.1,1-0.4,1.4-0.8c1.2-1.2,1.2-3.2,0-4.5c-1.2-1.2-3.2-1.2-4.5,0c-1.2,1.2-1.2,3.2,0,4.5c0,0,0,0,0,0l-3,11.7
			c-0.5-0.3-1.1-0.7-1.5-1.2c-0.8-0.8-1.5-1.9-2.2-3.1l0-5.6l10.3-13.6l-3.4-2.5l-6.9,9.1l0-8l7.5-9.9l-3.4-2.5l-4.1,5.4l0-9.2
			l-4.2,0l0,10l-5.7-6.4l-3.1,2.8l8.9,9.9l0,8.1l-8.5-9.5l-3.2,2.8l11.7,13l0,6.2c-0.5,1.3-1.6,3.6-3.2,5.4l-3.1-9.6
			c1.1-1.2,1.1-3.2-0.1-4.4c-1.2-1.2-3.2-1.2-4.5,0c-1.2,1.2-1.2,3.2,0,4.5c0.4,0.4,1,0.7,1.6,0.8L61,53.2c-0.1,0-0.2,0.1-0.2,0.1
			c-1.6,0.6-3.4,0.2-5.4-1.1l-2.3-2.3l-2.3-16.8l-4.2,0.6l1.5,11.2l-5.7-5.7l-1.7-12.2l-4.2,0.6l0.9,6.7L28.2,25l-3,3l10,10.1
			l-8.7-0.5l-0.2,4.2l13.4,0.7l5.7,5.7l-12.8-0.7l-0.2,4.2l17.5,1l2.2,2.2c0.2,0.8,0.4,2.4,0.4,4.2l-7.5-3c-0.1-0.5-0.4-1-0.8-1.4
			c-1.2-1.2-3.2-1.2-4.5,0c-1.2,1.2-1.2,3.2,0,4.5c1.2,1.2,3.2,1.2,4.5,0c0,0,0,0,0,0l7.8,3.1c-0.6,1.9-1.8,3.5-4.1,4.3l-4.2,0
			L30.4,56.5l-2.6,3.4l9,6.8l-8,0L19,59.3l-2.6,3.4l5.3,4l-12.6,0l0,4.2l13.7,0l-6.5,5.9l2.8,3.1l10.1-9l8.1,0l-9.7,8.6l2.8,3.1
			l13.2-11.8l4,0c0.1,0,0.1,0.1,0.2,0.1c0.8,0.5,2.3,1.5,3.6,2.7l-7.2,3.5c-1.2-0.8-2.9-0.7-4,0.4c-1.2,1.2-1.2,3.2,0,4.5
			c1.2,1.2,3.2,1.2,4.5,0c0.6-0.6,0.9-1.3,0.9-2l8-3.9c1.9,2.9,0.4,4.6-0.4,5.4l-4.9,4.9l-16.6,2.3l0.6,4.2l11-1.5l-5.7,5.7l-12,1.7
			l0.6,4.2l6.5-0.9l-7.6,7.6l3,3l8.5-8.5l-0.5,8.9l4.2,0.2l0.8-13.6l5.7-5.7l-0.7,13l4.2,0.2l1-17.7l4.3-4.3
			c1.3-0.1,3.2-0.1,5.2,0.2l-3.5,8.5c-0.5,0.1-1.1,0.4-1.5,0.8c-1.2,1.2-1.2,3.2,0,4.5c1.2,1.2,3.2,1.2,4.5,0
			c1.2-1.2,1.2-3.2,0.1-4.4l3.5-8.4c0.6,0.3,1.2,0.7,1.6,1.1c0.9,0.9,1.3,2.1,1.3,3.7l0,2.1l0,2.4l-9.9,13.1l3.4,2.6l6.5-8.6l0,8
			l-7.1,9.4l3.4,2.5l3.8-5.3l0,10.9H71l0-12.6l6.1,7l3.1-2.7l-9.2-10.3l0-8.1l8.9,9.9l3.2-2.8l-12-13.4l0-3.4
			c0.7-1.3,2.3-3.6,4.2-5.3l2.7,7.2c0,0,0,0,0,0c-1.2,1.2-1.2,3.2,0,4.5c1.2,1.2,3.2,1.2,4.5,0c1.2-1.2,1.2-3.2,0-4.5
			c-0.4-0.4-0.8-0.6-1.3-0.8l-3-8.1c0.1,0,0.2-0.1,0.4-0.1c1.3-0.4,2.5-0.2,3.7,0.5l4.5,4.5l2.3,17l4.2-0.6l-1.6-11.5l5.7,5.7
			l1.7,12.5l4.2-0.6l-0.9-7l7.7,7.7l3-3l-8.1-8.1l8.4,0.5l0.2-4.2l-13.1-0.7l-5.7-5.7l12.6,0.7l0.2-4.2l-17.3-0.9l-4.8-4.8
			c-0.2-0.9-0.4-3,0-5.1l7,3.4c0.1,0.7,0.3,1.5,0.9,2c1.2,1.2,3.2,1.2,4.5,0c1.2-1.2,1.2-3.2,0-4.5c-1.1-1.1-2.8-1.2-4-0.4l-7.3-3.5
			c1.1-1.7,2.8-2.7,5.3-3.2l6.5,0l12.9,9.8l2.6-3.4l-8.5-6.4l8,0l9.3,7l2.6-3.4l-4.8-3.7L128.9,70.9z M62.1,57.3
			c1.9-0.7,3.5-1.9,4.8-3.4l0,9.8l-6.1-6.1C61.3,57.5,61.7,57.4,62.1,57.3z M54.6,66.7c1.4-2.1,2-4.7,2.2-7.2l7.2,7.2L54.6,66.7z
			 M55,71.4c-0.2-0.2-0.3-0.3-0.5-0.5l9.4,0l-5.6,5.6C57.8,74.8,56.7,73.1,55,71.4z M59.9,80.9l7-7l0,9.2
			C64.7,81.7,62.1,81.1,59.9,80.9z M71.1,63.7l0-11.2c2.6,2.2,5.6,2.9,8.4,2.8L71.1,63.7z M77.2,80.4c-2.4,0.7-4.4,2.3-6.1,4.1
			l0-10.5l6.4,6.4C77.4,80.3,77.3,80.3,77.2,80.4z M83,71.8c-1.2,1.9-1.8,4-2,6l-6.9-6.9l9.6,0C83.4,71.2,83.2,71.5,83,71.8z
			 M74.1,66.7l8.4-8.3c0.3,2.8,1.6,5.7,3.8,8.3L74.1,66.7z"/>
	</g>
	<g>
		<g>
			<linearGradient id="SVGID_1_" gradientUnits="userSpaceOnUse" x1="25.826" y1="25.5968" x2="110.4189" y2="110.1897">
				<stop  offset="0" style="stop-color:#F9F9FA"/>
				<stop  offset="0.6617" style="stop-color:#E2E2E3"/>
				<stop  offset="1" style="stop-color:#D4D4D5"/>
			</linearGradient>
			<path class="st1" d="M128,70l0-4.2l-10.6,0l6.9-6.2l-2.8-3.1l-10.4,9.3l-8.1,0l10-9l-2.8-3.1L96.7,65.8l-5.3,0
				c-0.4-0.3-1-0.8-1.6-1.5c-0.9-0.9-1.8-2-2.5-3.2l9.5-4.1c1.2,0.9,3,0.8,4.1-0.3c1.2-1.2,1.2-3.2,0-4.5c-1.2-1.2-3.2-1.2-4.5,0
				c-0.5,0.5-0.8,1.2-0.9,1.9L86,58.2c-0.5-1.8-0.4-3.8,0.7-5.9l3.3-3.3l16.9-2.3l-0.6-4.2l-11.4,1.6l5.7-5.7l12.3-1.7l-0.6-4.2
				l-6.8,0.9L112,27l-3-3l-7,7l0.5-8.5l-4.2-0.2l-0.7,13.3l-5.7,5.7l0.7-12.7l-4.2-0.2l-1,17.4l-2.1,2.1l-0.8,0.5
				c-0.2,0.1-3.7,2.2-7.4,1.8l3.1-12c0.5-0.1,1-0.4,1.4-0.8c1.2-1.2,1.2-3.2,0-4.5c-1.2-1.2-3.2-1.2-4.5,0c-1.2,1.2-1.2,3.2,0,4.5
				c0,0,0,0,0,0l-3,11.7c-0.5-0.3-1.1-0.7-1.5-1.2c-0.8-0.8-1.5-1.9-2.2-3.1l0-5.6l10.3-13.6l-3.4-2.5l-6.9,9.1l0-8l7.5-9.9
				l-3.4-2.5l-4.1,5.4l0-9.2l-4.2,0l0,10l-5.7-6.4l-3.1,2.8l8.9,9.9l0,8.1l-8.5-9.5l-3.2,2.8l11.7,13l0,6.2
				c-0.5,1.3-1.6,3.6-3.2,5.4l-3.1-9.6c1.1-1.2,1.1-3.2-0.1-4.4c-1.2-1.2-3.2-1.2-4.5,0c-1.2,1.2-1.2,3.2,0,4.5
				c0.4,0.4,1,0.7,1.6,0.8l3.4,10.6c-0.1,0-0.2,0.1-0.2,0.1c-1.6,0.6-3.4,0.2-5.4-1.1L52.2,49l-2.3-16.8l-4.2,0.6l1.5,11.2l-5.7-5.7
				L40,26.2l-4.2,0.6l0.9,6.7l-9.4-9.4l-3,3l10,10.1l-8.7-0.5l-0.2,4.2l13.4,0.7l5.7,5.7l-12.8-0.7l-0.2,4.2l17.5,1l2.2,2.2
				c0.2,0.8,0.4,2.4,0.4,4.2l-7.5-3c-0.1-0.5-0.4-1-0.8-1.4c-1.2-1.2-3.2-1.2-4.5,0c-1.2,1.2-1.2,3.2,0,4.5c1.2,1.2,3.2,1.2,4.5,0
				c0,0,0,0,0,0l7.8,3.1c-0.6,1.9-1.8,3.5-4.1,4.3l-4.2,0L29.5,55.7L26.9,59l9,6.8l-8,0l-9.7-7.4l-2.6,3.4l5.3,4l-12.6,0l0,4.2
				L22,70l-6.5,5.9l2.8,3.1l10.1-9l8.1,0l-9.7,8.6l2.8,3.1L42.7,70l4,0c0.1,0,0.1,0.1,0.2,0.1c0.8,0.5,2.3,1.5,3.6,2.7l-7.2,3.5
				c-1.2-0.8-2.9-0.7-4,0.4C38,78,38,80,39.3,81.2c1.2,1.2,3.2,1.2,4.5,0c0.6-0.6,0.9-1.3,0.9-2l8-3.9c1.9,2.9,0.4,4.6-0.4,5.4
				l-4.9,4.9l-16.6,2.3l0.6,4.2l11-1.5l-5.7,5.7l-12,1.7l0.6,4.2l6.5-0.9l-7.6,7.6l3,3l8.5-8.5l-0.5,8.9l4.2,0.2l0.8-13.6L46,93
				l-0.7,13l4.2,0.2l1-17.7l4.3-4.3c1.3-0.1,3.2-0.1,5.2,0.2l-3.5,8.5c-0.5,0.1-1.1,0.4-1.5,0.8c-1.2,1.2-1.2,3.2,0,4.5
				c1.2,1.2,3.2,1.2,4.5,0c1.2-1.2,1.2-3.2,0.1-4.4l3.5-8.4c0.6,0.3,1.2,0.7,1.6,1.1c0.9,0.9,1.3,2.1,1.3,3.7l0,2.1l0,2.4L56,107.6
				l3.4,2.6l6.5-8.6l0,8l-7.1,9.4l3.4,2.5l3.8-5.3l0,10.9h4.2l0-12.6l6.1,7l3.1-2.7l-9.2-10.3l0-8.1l8.9,9.9l3.2-2.8L70.2,94l0-3.4
				c0.7-1.3,2.3-3.6,4.2-5.3l2.7,7.2c0,0,0,0,0,0c-1.2,1.2-1.2,3.2,0,4.5c1.2,1.2,3.2,1.2,4.5,0c1.2-1.2,1.2-3.2,0-4.5
				c-0.4-0.4-0.8-0.6-1.3-0.8l-3-8.1c0.1,0,0.2-0.1,0.4-0.1c1.3-0.4,2.5-0.2,3.7,0.5l4.5,4.5l2.3,17l4.2-0.6l-1.6-11.5l5.7,5.7
				l1.7,12.5l4.2-0.6l-0.9-7l7.7,7.7l3-3l-8.1-8.1l8.4,0.5l0.2-4.2l-13.1-0.7l-5.7-5.7l12.6,0.7l0.2-4.2L89.2,86l-4.8-4.8
				c-0.2-0.9-0.4-3,0-5.1l7,3.4c0.1,0.7,0.3,1.5,0.9,2c1.2,1.2,3.2,1.2,4.5,0c1.2-1.2,1.2-3.2,0-4.5c-1.1-1.1-2.8-1.2-4-0.4
				l-7.3-3.5c1.1-1.7,2.8-2.7,5.3-3.2l6.5,0l12.9,9.8l2.6-3.4l-8.5-6.4l8,0l9.3,7l2.6-3.4l-4.8-3.7L128,70z M61.3,56.4
				c1.9-0.7,3.5-1.9,4.8-3.4l0,9.8L60,56.7C60.4,56.7,60.8,56.5,61.3,56.4z M53.7,65.8c1.4-2.1,2-4.7,2.2-7.2l7.2,7.2L53.7,65.8z
				 M54.1,70.5c-0.2-0.2-0.3-0.3-0.5-0.5l9.4,0l-5.6,5.6C56.9,73.9,55.8,72.2,54.1,70.5z M59,80l7-7l0,9.2
				C63.9,80.8,61.2,80.2,59,80z M70.2,62.8l0-11.2c2.6,2.2,5.6,2.9,8.4,2.8L70.2,62.8z M76.3,79.5c-2.4,0.7-4.4,2.3-6.1,4.1l0-10.5
				l6.4,6.4C76.5,79.4,76.4,79.4,76.3,79.5z M82.1,70.9c-1.2,1.9-1.8,4-2,6L73.2,70l9.6,0C82.5,70.3,82.3,70.6,82.1,70.9z
				 M73.2,65.8l8.4-8.3c0.3,2.8,1.6,5.7,3.8,8.3L73.2,65.8z"/>
		</g>
	</g>
</g>
</svg>
