<?xml version="1.0" encoding="utf-8"?>
<!-- Generator: Adobe Illustrator 23.0.1, SVG Export Plug-In . SVG Version: 6.00 Build 0)  -->
<svg version="1.1" id="Layer_1" xmlns:svg="http://www.w3.org/2000/svg"
	 xmlns="http://www.w3.org/2000/svg" xmlns:xlink="http://www.w3.org/1999/xlink" x="0px" y="0px" viewBox="0 0 134.2 134.3"
	 style="enable-background:new 0 0 134.2 134.3;" xml:space="preserve">
<style type="text/css">
	.st0{opacity:0.12;}
	.st1{fill:url(#SVGID_1_);}
</style>
<g>
	<g class="st0">
		<path d="M115.9,70l0-3.4l-8.5,0l5.5-5l-2.2-2.5l-8.4,7.5l-6.5,0l8-7.2l-2.2-2.5l-10.8,9.7l-4.2,0c-0.3-0.3-0.8-0.6-1.3-1.2
			c-0.7-0.7-1.5-1.6-2-2.5l7.6-3.3c1,0.7,2.4,0.7,3.3-0.2c1-1,1-2.6,0-3.6c-1-1-2.6-1-3.6,0c-0.4,0.4-0.7,0.9-0.7,1.5l-7.6,3.3
			c-0.4-1.5-0.3-3,0.5-4.7l2.6-2.6L99,51.4l-0.5-3.3l-9.1,1.3l4.5-4.5l9.9-1.4l-0.5-3.3l-5.5,0.8l5.2-5.2l-2.4-2.4l-5.6,5.6l0.4-6.8
			l-3.4-0.2l-0.6,10.6l-4.6,4.6l0.6-10.2l-3.4-0.2l-0.8,13.9l-1.7,1.7L81,52.8c-0.2,0.1-2.9,1.8-5.9,1.4l2.5-9.6
			c0.4-0.1,0.8-0.3,1.1-0.6c1-1,1-2.6,0-3.6c-1-1-2.6-1-3.6,0c-1,1-1,2.6,0,3.6c0,0,0,0,0,0l-2.4,9.4c-0.4-0.3-0.8-0.6-1.2-1
			c-0.6-0.6-1.2-1.5-1.8-2.5l0-4.5l8.2-10.8l-2.7-2l-5.5,7.3l0-6.4l6-7.9l-2.7-2l-3.3,4.3l0-7.3l-3.4,0l0,8l-4.6-5.1l-2.5,2.3
			l7.1,7.9l0,6.5l-6.8-7.6L57,34.7l9.3,10.4l0,4.9c-0.4,1-1.3,2.9-2.6,4.3l-2.5-7.7c0.9-1,0.9-2.5-0.1-3.5c-1-1-2.6-1-3.6,0
			c-1,1-1,2.6,0,3.6c0.4,0.4,0.8,0.6,1.3,0.7l2.7,8.5c-0.1,0-0.1,0.1-0.2,0.1c-1.3,0.4-2.7,0.2-4.3-0.9l-1.9-1.9l-1.8-13.4l-3.3,0.5
			l1.2,9l-4.5-4.5L45.5,35l-3.3,0.5l0.7,5.3l-7.5-7.5L33,35.7l8,8l-6.9-0.4l-0.2,3.4l10.7,0.6l4.6,4.6l-10.3-0.6l-0.2,3.4l14,0.8
			l1.8,1.8c0.1,0.6,0.3,1.9,0.3,3.4l-6-2.4c-0.1-0.4-0.3-0.8-0.6-1.1c-1-1-2.6-1-3.6,0c-1,1-1,2.6,0,3.6c1,1,2.6,1,3.6,0
			c0,0,0,0,0,0l6.2,2.5c-0.5,1.5-1.5,2.8-3.3,3.5l-3.3,0l-10.7-8.1l-2,2.7l7.2,5.4l-6.4,0L28,60.8l-2,2.7l4.2,3.2l-10.1,0l0,3.4
			l11,0l-5.2,4.7l2.2,2.5l8-7.2l6.5,0L34.9,77l2.2,2.5l10.5-9.4l3.2,0c0,0,0.1,0.1,0.1,0.1c0.7,0.4,1.8,1.2,2.9,2.2l-5.8,2.8
			c-1-0.7-2.3-0.6-3.2,0.3c-1,1-1,2.6,0,3.6c1,1,2.6,1,3.6,0c0.4-0.4,0.7-1,0.7-1.6l6.4-3.1c1.5,2.3,0.3,3.7-0.3,4.3l-3.9,3.9
			l-13.2,1.8l0.5,3.3l8.8-1.2L43,91l-9.6,1.3l0.5,3.3l5.2-0.7l-6.1,6.1l2.4,2.4l6.8-6.8l-0.4,7.1l3.4,0.2L45.7,93l4.6-4.6l-0.6,10.4
			L53,99l0.8-14.2l3.5-3.5c1-0.1,2.6-0.1,4.1,0.1l-2.8,6.8c-0.4,0.1-0.8,0.3-1.2,0.7c-1,1-1,2.6,0,3.6c1,1,2.6,1,3.6,0
			c1-1,1-2.5,0.1-3.5l2.8-6.7c0.5,0.2,0.9,0.5,1.3,0.9c0.7,0.7,1.1,1.7,1.1,2.9l0,1.6l0,1.9l-7.9,10.5l2.7,2l5.2-6.9l0,6.4l-5.7,7.5
			l2.7,2l3-4.3l0,8.7h3.4l0-10.1l4.9,5.6L77,109l-7.4-8.2l0-6.5l7.1,7.9l2.5-2.2l-9.6-10.7l0-2.7c0.6-1.1,1.8-2.9,3.3-4.2l2.1,5.7
			c0,0,0,0,0,0c-1,1-1,2.6,0,3.6c1,1,2.6,1,3.6,0c1-1,1-2.6,0-3.6c-0.3-0.3-0.7-0.5-1.1-0.6l-2.4-6.5c0.1,0,0.2-0.1,0.3-0.1
			c1-0.3,2-0.2,3,0.4l3.6,3.6l1.9,13.6l3.3-0.5L86,88.8l4.5,4.5l1.4,10l3.3-0.5l-0.8-5.6l6.1,6.1l2.4-2.4l-6.4-6.4l6.7,0.4l0.2-3.4
			L93,91l-4.6-4.6l10,0.5l0.2-3.4l-13.8-0.8L81,79c-0.1-0.7-0.3-2.4,0-4l5.6,2.8c0,0.6,0.3,1.2,0.7,1.6c1,1,2.6,1,3.6,0
			c1-1,1-2.6,0-3.6c-0.9-0.9-2.2-1-3.2-0.3L82,72.6c0.9-1.3,2.3-2.2,4.2-2.6l5.2,0l10.3,7.8l2-2.7L97,70l6.4,0l7.4,5.6l2-2.7L109,70
			L115.9,70z M62.5,59.2c1.5-0.5,2.8-1.5,3.8-2.7l0,7.8l-4.8-4.9C61.8,59.4,62.2,59.3,62.5,59.2z M56.5,66.7
			c1.1-1.7,1.6-3.8,1.7-5.7l5.7,5.7L56.5,66.7z M56.8,70.4c-0.1-0.1-0.3-0.3-0.4-0.4l7.5,0l-4.5,4.5C59,73.1,58.2,71.8,56.8,70.4z
			 M60.7,78l5.6-5.6l0,7.3C64.6,78.7,62.5,78.2,60.7,78z M69.7,64.3l0-9c2.1,1.8,4.5,2.3,6.7,2.3L69.7,64.3z M74.5,77.6
			c-1.9,0.6-3.5,1.9-4.8,3.2l0-8.4l5.1,5.1C74.7,77.6,74.6,77.6,74.5,77.6z M79.2,70.8c-1,1.5-1.4,3.2-1.6,4.8L72.1,70l7.6,0
			C79.5,70.3,79.3,70.5,79.2,70.8z M72.1,66.7l6.7-6.7c0.2,2.3,1.3,4.5,3.1,6.7L72.1,66.7z"/>
	</g>
	<g>
		<g>
			<linearGradient id="SVGID_1_" gradientUnits="userSpaceOnUse" x1="33.2945" y1="33.6577" x2="100.9077" y2="101.2709">
				<stop  offset="0" style="stop-color:#F9F9FA"/>
				<stop  offset="0.6617" style="stop-color:#E2E2E3"/>
				<stop  offset="1" style="stop-color:#D4D4D5"/>
			</linearGradient>
			<path class="st1" d="M115,69.1l0-3.4l-8.5,0l5.5-5l-2.2-2.5l-8.4,7.5l-6.5,0l8-7.2l-2.2-2.5l-10.8,9.7l-4.2,0
				c-0.3-0.3-0.8-0.6-1.3-1.2c-0.7-0.7-1.5-1.6-2-2.5l7.6-3.3c1,0.7,2.4,0.7,3.3-0.2c1-1,1-2.6,0-3.6c-1-1-2.6-1-3.6,0
				c-0.4,0.4-0.7,0.9-0.7,1.5l-7.6,3.3c-0.4-1.5-0.3-3,0.5-4.7l2.6-2.6l13.5-1.9l-0.5-3.3l-9.1,1.3l4.5-4.5l9.9-1.4l-0.5-3.3L97,40
				l5.2-5.2l-2.4-2.4L94.2,38l0.4-6.8L91.2,31l-0.6,10.6L86,46.2L86.6,36l-3.4-0.2l-0.8,13.9l-1.7,1.7l-0.7,0.4
				c-0.2,0.1-2.9,1.8-5.9,1.4l2.5-9.6c0.4-0.1,0.8-0.3,1.1-0.6c1-1,1-2.6,0-3.6c-1-1-2.6-1-3.6,0c-1,1-1,2.6,0,3.6c0,0,0,0,0,0
				l-2.4,9.4c-0.4-0.3-0.8-0.6-1.2-1c-0.6-0.6-1.2-1.5-1.7-2.5l0-4.5L77,33.7l-2.7-2l-5.5,7.3l0-6.4l6-7.9l-2.7-2l-3.3,4.3l0-7.3
				l-3.4,0l0,8l-4.6-5.1l-2.5,2.3l7.1,7.9l0,6.5l-6.8-7.6l-2.5,2.3l9.3,10.4l0,4.9c-0.4,1-1.3,2.9-2.6,4.3l-2.5-7.7
				c0.9-1,0.9-2.5-0.1-3.5c-1-1-2.6-1-3.6,0c-1,1-1,2.6,0,3.6c0.4,0.4,0.8,0.6,1.3,0.7l2.7,8.5c-0.1,0-0.1,0.1-0.2,0.1
				c-1.3,0.4-2.7,0.2-4.3-0.9l-1.9-1.9L52.6,39l-3.3,0.5l1.2,9l-4.5-4.5l-1.3-9.7l-3.3,0.5l0.7,5.3l-7.5-7.5l-2.4,2.4l8,8l-6.9-0.4
				L33,45.9l10.7,0.6l4.6,4.6L38,50.5l-0.2,3.4l14,0.8l1.8,1.8c0.1,0.6,0.3,1.9,0.3,3.4l-6-2.4c-0.1-0.4-0.3-0.8-0.6-1.1
				c-1-1-2.6-1-3.6,0c-1,1-1,2.6,0,3.6c1,1,2.6,1,3.6,0c0,0,0,0,0,0l6.2,2.5c-0.5,1.5-1.5,2.8-3.3,3.5l-3.3,0l-10.7-8.1l-2,2.7
				l7.2,5.4l-6.4,0l-7.8-5.9l-2,2.7l4.2,3.2l-10.1,0l0,3.4l11,0L25,73.9l2.2,2.5l8-7.2l6.5,0L34,76.1l2.2,2.5l10.5-9.4l3.2,0
				c0,0,0.1,0.1,0.1,0.1c0.7,0.4,1.8,1.2,2.9,2.2l-5.8,2.8c-1-0.7-2.3-0.6-3.2,0.3c-1,1-1,2.6,0,3.6c1,1,2.6,1,3.6,0
				c0.4-0.4,0.7-1,0.7-1.6l6.4-3.1c1.5,2.3,0.3,3.7-0.3,4.3l-3.9,3.9l-13.2,1.8l0.5,3.3l8.8-1.2l-4.5,4.5l-9.6,1.3l0.5,3.3l5.2-0.7
				l-6.1,6.1l2.4,2.4l6.8-6.8l-0.4,7.1l3.4,0.2l0.6-10.8l4.6-4.6L48.8,98l3.4,0.2L53,84l3.5-3.5c1-0.1,2.6-0.1,4.1,0.1l-2.8,6.8
				c-0.4,0.1-0.8,0.3-1.2,0.7c-1,1-1,2.6,0,3.6c1,1,2.6,1,3.6,0c1-1,1-2.5,0.1-3.5l2.8-6.7c0.5,0.2,0.9,0.5,1.3,0.9
				c0.7,0.7,1.1,1.7,1.1,2.9l0,1.6l0,1.9l-7.9,10.5l2.7,2l5.2-6.9l0,6.4l-5.7,7.5l2.7,2l3-4.3l0,8.7h3.4l0-10.1l4.9,5.6l2.5-2.2
				l-7.4-8.2l0-6.5l7.1,7.9l2.5-2.2l-9.6-10.7l0-2.7c0.6-1.1,1.8-2.9,3.3-4.2l2.1,5.7c0,0,0,0,0,0c-1,1-1,2.6,0,3.6c1,1,2.6,1,3.6,0
				c1-1,1-2.6,0-3.6c-0.3-0.3-0.7-0.5-1.1-0.6l-2.4-6.5c0.1,0,0.2-0.1,0.3-0.1c1-0.3,2-0.2,3,0.4l3.6,3.6L83,97.5l3.3-0.5l-1.3-9.2
				l4.5,4.5l1.4,10l3.3-0.5l-0.8-5.6l6.1,6.1l2.4-2.4l-6.4-6.4l6.7,0.4l0.2-3.4l-10.5-0.6l-4.6-4.6l10,0.5l0.2-3.4l-13.8-0.8
				l-3.8-3.8c-0.1-0.7-0.3-2.4,0-4l5.6,2.8c0,0.6,0.3,1.2,0.7,1.6c1,1,2.6,1,3.6,0c1-1,1-2.6,0-3.6c-0.9-0.9-2.2-1-3.2-0.3l-5.8-2.8
				c0.9-1.3,2.3-2.2,4.2-2.6l5.2,0l10.3,7.8l2-2.7l-6.8-5.2l6.4,0l7.4,5.6l2-2.7l-3.9-2.9L115,69.1z M61.6,58.3
				c1.5-0.5,2.8-1.5,3.8-2.7l0,7.8l-4.8-4.9C60.9,58.5,61.3,58.4,61.6,58.3z M55.6,65.8c1.1-1.7,1.6-3.8,1.7-5.7l5.7,5.7L55.6,65.8z
				 M55.9,69.5c-0.1-0.1-0.3-0.3-0.4-0.4l7.5,0l-4.5,4.5C58.1,72.3,57.3,70.9,55.9,69.5z M59.8,77.2l5.6-5.6l0,7.3
				C63.7,77.8,61.6,77.3,59.8,77.2z M68.8,63.4l0-9c2.1,1.8,4.5,2.3,6.7,2.3L68.8,63.4z M73.6,76.7c-1.9,0.6-3.5,1.9-4.8,3.2l0-8.4
				l5.1,5.1C73.8,76.7,73.7,76.7,73.6,76.7z M78.3,69.9c-1,1.5-1.4,3.2-1.6,4.8l-5.5-5.5l7.6,0C78.6,69.4,78.4,69.6,78.3,69.9z
				 M71.2,65.8l6.7-6.7c0.2,2.3,1.3,4.5,3.1,6.7L71.2,65.8z"/>
		</g>
	</g>
</g>
</svg>
