<?xml version="1.0" encoding="utf-8"?>
<!-- Generator: Adobe Illustrator 23.0.1, SVG Export Plug-In . SVG Version: 6.00 Build 0)  -->
<svg version="1.1" id="Layer_1" xmlns="http://www.w3.org/2000/svg" xmlns:xlink="http://www.w3.org/1999/xlink" x="0px" y="0px"
	 viewBox="0 0 267.2 267.2" style="enable-background:new 0 0 267.2 267.2;" xml:space="preserve">
<style type="text/css">
	.st0{opacity:0.12;}
	.st1{fill:url(#SVGID_1_);}
</style>
<g>
	<g class="st0">
		<path d="M268.1,140.1l0-9.4l-23.6,0l15.5-13.8l-6.3-7l-23.3,20.9l-18.1,0l22.4-20l-6.3-7l-30.3,27.1l-11.7,0
			c-0.9-0.7-2.2-1.8-3.6-3.3c-2-2-4.1-4.4-5.7-7.1l21.2-9.1c2.8,2.1,6.7,1.9,9.2-0.7c2.8-2.8,2.8-7.2,0-10c-2.8-2.8-7.2-2.8-10,0
			c-1.2,1.2-1.8,2.6-2,4.1l-21.2,9.1c-1-4.1-0.9-8.5,1.5-13.1l7.3-7.3l37.7-5.2l-1.3-9.3l-25.4,3.5l12.7-12.6l27.5-3.8l-1.3-9.3
			L218,58.7l14.5-14.5l-6.6-6.6l-15.7,15.6l1.1-19l-9.4-0.5l-1.7,29.6l-12.8,12.8l1.6-28.3l-9.4-0.5l-2.2,38.8l-4.8,4.8l-1.8,1.1
			c-0.4,0.3-8.1,5-16.4,3.9l6.9-26.7c1.1-0.3,2.2-0.9,3.1-1.8c2.8-2.8,2.8-7.2,0-10c-2.8-2.8-7.2-2.8-10,0c-2.8,2.8-2.8,7.2,0,10
			c0,0,0,0,0,0l-6.8,26.1c-1.2-0.7-2.3-1.6-3.5-2.7c-1.8-1.8-3.4-4.1-4.9-6.9l0-12.6l22.9-30.2l-7.5-5.7l-15.4,20.3l0-17.9l16.7-22
			l-7.5-5.7l-9.2,12.1l0-20.4l-9.4,0l0,22.3L117.2,9.9l-7,6.3L130,38.4l0,18.1l-19-21.2l-7,6.3l26,29.1l0,13.7
			c-1.1,2.9-3.6,8.1-7.2,12l-6.9-21.4c2.5-2.8,2.5-7-0.2-9.7c-2.8-2.8-7.2-2.8-10,0c-2.8,2.8-2.8,7.2,0,10c1,1,2.2,1.6,3.5,1.9
			l7.6,23.7c-0.2,0.1-0.3,0.2-0.5,0.2c-3.6,1.2-7.5,0.4-11.9-2.4L99,93.3L93.9,56l-9.3,1.3L88,82.3L75.4,69.7l-3.7-27.2l-9.3,1.3
			l2,14.9L43.5,37.8l-6.7,6.7l22.4,22.4l-19.4-1.1l-0.5,9.4l29.9,1.6L82,89.6l-28.6-1.6l-0.5,9.4L92,99.6l5,5
			c0.4,1.8,0.9,5.4,0.8,9.4L81,107.3c-0.3-1.1-0.9-2.2-1.8-3c-2.8-2.8-7.2-2.8-10,0c-2.8,2.8-2.8,7.2,0,10c2.8,2.8,7.2,2.8,10,0
			c0,0,0,0,0,0l17.4,6.9c-1.3,4.2-4.1,7.9-9.1,9.7l-9.3,0l-29.9-22.6l-5.7,7.5l20,15.1l-17.9,0L23,114.4l-5.7,7.5l11.8,8.9l-28.2,0
			l0,9.4l30.6,0l-14.6,13.1l6.3,7l22.4-20.1l18.1,0l-21.5,19.3l6.3,7l29.4-26.3l8.9,0c0.1,0.1,0.2,0.2,0.4,0.3
			c1.8,1.2,5,3.3,8.1,6.1l-16.1,7.9c-2.7-1.9-6.5-1.6-8.9,0.9c-2.8,2.8-2.8,7.2,0,10c2.8,2.8,7.2,2.8,10,0c1.3-1.3,1.9-2.9,2-4.5
			l17.9-8.7c4.2,6.5,0.8,10.3-0.8,12.1L88.3,175l-36.9,5.1l1.3,9.3l24.6-3.4l-12.7,12.6l-26.8,3.7l1.3,9.3l14.4-2l-17,17l6.6,6.6
			l19-19l-1.1,19.8l9.4,0.5l1.7-30.3L85,191.5l-1.7,29.1l9.4,0.5l2.3-39.6l9.7-9.7c2.8-0.3,7.2-0.3,11.5,0.4l-7.9,18.9
			c-1.2,0.3-2.4,0.9-3.3,1.8c-2.8,2.8-2.8,7.2,0,10c2.7,2.8,7.2,2.7,10,0c2.7-2.7,2.8-7.1,0.2-9.8l7.9-18.8c1.4,0.7,2.6,1.5,3.7,2.5
			c2,2,3,4.7,3,8.2l0,4.6l0,5.3l-22.1,29.2l7.5,5.7l14.6-19.3l0,17.9l-15.9,21l7.5,5.7l8.4-11.9l-0.1,24.2h9.4l0-28.1l13.6,15.7
			l7-6.1l-20.6-23l0-18l19.8,22.2l7-6.3l-26.8-30l0-7.6c1.6-2.9,5.1-8,9.3-11.7l5.9,16c0,0-0.1,0.1-0.1,0.1c-2.8,2.8-2.8,7.2,0,10
			c2.7,2.8,7.2,2.7,10,0c2.8-2.8,2.8-7.2,0-10c-0.9-0.9-1.9-1.4-3-1.7l-6.7-18.2c0.3-0.1,0.5-0.2,0.8-0.3c2.8-0.8,5.6-0.5,8.4,1
			l10,10l5.2,38l9.3-1.3l-3.5-25.7l12.6,12.6l3.8,27.9l9.3-1.3l-2.1-15.5l17.1,17.2l6.7-6.7l-18-18l18.8,1l0.5-9.4l-29.3-1.6
			l-12.8-12.8l28,1.5l0.5-9.4l-38.6-2.1l-10.6-10.6c-0.3-2.1-0.8-6.6,0.1-11.3l15.7,7.7c0.1,1.6,0.8,3.2,2,4.5c2.8,2.8,7.2,2.7,10,0
			c2.8-2.8,2.8-7.2,0-10c-2.4-2.4-6.2-2.7-8.9-0.9l-16.2-7.9c2.5-3.8,6.3-6.1,11.8-7.2l14.4,0l28.9,21.9l5.7-7.5l-19-14.4l17.9,0
			l20.7,15.7l5.7-7.5l-10.8-8.2L268.1,140.1z M119.2,109.8c4.3-1.5,7.8-4.3,10.7-7.5l0,21.8l-13.5-13.5
			C117.3,110.4,118.2,110.2,119.2,109.8z M102.3,130.8c3.2-4.8,4.5-10.5,4.8-16l16,16L102.3,130.8z M103.3,141.3
			c-0.4-0.4-0.8-0.7-1.2-1.1l21,0l-12.5,12.5C109.4,148.9,107,145,103.3,141.3z M114.1,162.6l15.7-15.7l0,20.5
			C125,164.3,119.2,163,114.1,162.6z M139.2,124.1l0.1-25c5.8,5,12.5,6.5,18.7,6.3L139.2,124.1z M152.7,161.3
			c-5.3,1.6-9.9,5.2-13.5,9l0.1-23.5l14.3,14.3C153.2,161.2,152.9,161.3,152.7,161.3z M165.7,142.3c-2.8,4.3-4,9-4.4,13.3
			l-15.4-15.4l21.3,0C166.7,140.8,166.1,141.5,165.7,142.3z M145.9,130.8l18.6-18.6c0.7,6.3,3.6,12.6,8.6,18.6L145.9,130.8z"/>
	</g>
	<g>
		<g>
			<linearGradient id="SVGID_1_" gradientUnits="userSpaceOnUse" x1="39.2557" y1="40.2527" x2="227.9545" y2="228.9516">
				<stop  offset="0" style="stop-color:#F9F9FA"/>
				<stop  offset="0.6617" style="stop-color:#E2E2E3"/>
				<stop  offset="1" style="stop-color:#D4D4D5"/>
			</linearGradient>
			<path class="st1" d="M267.2,139.2l0-9.4l-23.6,0l15.5-13.8l-6.3-7l-23.3,20.9l-18.1,0l22.4-20l-6.3-7l-30.3,27.1l-11.7,0
				c-0.9-0.7-2.2-1.8-3.6-3.3c-2-2-4.1-4.4-5.7-7.1l21.2-9.1c2.8,2.1,6.7,1.9,9.2-0.7c2.8-2.8,2.8-7.2,0-10c-2.8-2.8-7.2-2.8-10,0
				c-1.2,1.2-1.8,2.6-2,4.1l-21.2,9.1c-1-4.1-0.9-8.5,1.5-13.1l7.3-7.3l37.7-5.2l-1.3-9.3l-25.4,3.5L206,68.9l27.5-3.8l-1.3-9.3
				l-15.2,2.1l14.5-14.5l-6.6-6.6l-15.7,15.6l1.1-19l-9.4-0.5l-1.7,29.6l-12.8,12.8l1.6-28.3l-9.4-0.5l-2.2,38.8l-4.8,4.8l-1.8,1.1
				c-0.4,0.3-8.1,5-16.4,3.9l6.9-26.7c1.1-0.3,2.2-0.9,3.1-1.8c2.8-2.8,2.8-7.2,0-10c-2.8-2.8-7.2-2.8-10,0c-2.8,2.8-2.8,7.2,0,10
				c0,0,0,0,0,0l-6.8,26.1c-1.2-0.7-2.3-1.6-3.5-2.7c-1.8-1.8-3.4-4.1-4.9-6.9l0-12.6l22.9-30.2l-7.5-5.7l-15.4,20.3l0-17.9l16.7-22
				l-7.5-5.7l-9.2,12.1l0-20.4l-9.4,0l0,22.3L116.3,9l-7,6.3l19.8,22.1l0,18.1l-19-21.2l-7,6.3l26,29.1l0,13.7
				c-1.1,2.9-3.6,8.1-7.2,12L114.9,74c2.5-2.8,2.5-7-0.2-9.7c-2.8-2.8-7.2-2.8-10,0c-2.8,2.8-2.8,7.2,0,10c1,1,2.2,1.6,3.5,1.9
				l7.6,23.7c-0.2,0.1-0.3,0.2-0.5,0.2c-3.6,1.2-7.5,0.4-11.9-2.4l-5.2-5.2l-5.1-37.4l-9.3,1.3l3.4,25.1L74.5,68.8l-3.7-27.2
				l-9.3,1.3l2,14.9L42.6,36.9L36,43.5L58.4,66L39,64.9l-0.5,9.4l29.9,1.6l12.8,12.8l-28.6-1.6l-0.5,9.4l39.1,2.1l5,5
				c0.4,1.8,0.9,5.4,0.8,9.4l-16.8-6.6c-0.3-1.1-0.9-2.2-1.8-3c-2.8-2.8-7.2-2.8-10,0c-2.8,2.8-2.8,7.2,0,10c2.8,2.8,7.2,2.8,10,0
				c0,0,0,0,0,0l17.4,6.9c-1.3,4.2-4.1,7.9-9.1,9.7l-9.3,0l-29.9-22.6l-5.7,7.5l20,15.1l-17.9,0l-21.7-16.4l-5.7,7.5l11.8,8.9L0,130
				l0,9.4l30.6,0L16,152.5l6.3,7l22.4-20.1l18.1,0l-21.5,19.3l6.3,7L77,139.3l8.9,0c0.1,0.1,0.2,0.2,0.4,0.3c1.8,1.2,5,3.3,8.1,6.1
				l-16.1,7.9c-2.7-1.9-6.5-1.6-8.9,0.9c-2.8,2.8-2.8,7.2,0,10c2.8,2.8,7.2,2.8,10,0c1.3-1.3,1.9-2.9,2-4.5l17.9-8.7
				c4.2,6.5,0.8,10.3-0.8,12.1l-10.9,10.8l-36.9,5.1l1.3,9.3l24.6-3.4l-12.7,12.6L37,201.5l1.3,9.3l14.4-2l-17,17l6.6,6.6l19-19
				l-1.1,19.8l9.4,0.5l1.7-30.3l12.8-12.8l-1.7,29.1l9.4,0.5l2.3-39.6l9.7-9.7c2.8-0.3,7.2-0.3,11.5,0.4l-7.9,18.9
				c-1.2,0.3-2.4,0.9-3.3,1.8c-2.8,2.8-2.8,7.2,0,10c2.7,2.8,7.2,2.7,10,0c2.7-2.7,2.8-7.1,0.2-9.8l7.9-18.8
				c1.4,0.7,2.6,1.5,3.7,2.5c2,2,3,4.7,3,8.2l0,4.6l0,5.3l-22.1,29.2l7.5,5.7l14.6-19.3l0,17.9l-15.9,21l7.5,5.7l8.4-11.9l-0.1,24.2
				h9.4l0-28.1l13.6,15.7l7-6.1l-20.6-23l0-18l19.8,22.2l7-6.3l-26.8-30l0-7.6c1.6-2.9,5.1-8,9.3-11.7l5.9,16c0,0-0.1,0.1-0.1,0.1
				c-2.8,2.8-2.8,7.2,0,10c2.7,2.8,7.2,2.7,10,0c2.8-2.8,2.8-7.2,0-10c-0.9-0.9-1.9-1.4-3-1.7l-6.7-18.2c0.3-0.1,0.5-0.2,0.8-0.3
				c2.8-0.8,5.6-0.5,8.4,1l10,10l5.2,38l9.3-1.3l-3.5-25.7l12.6,12.6l3.8,27.9l9.3-1.3l-2.1-15.5l17.1,17.2l6.7-6.7l-18-18l18.8,1
				l0.5-9.4l-29.3-1.6l-12.8-12.8l28,1.5l0.5-9.4l-38.6-2.1L170,164.3c-0.3-2.1-0.8-6.6,0.1-11.3l15.7,7.7c0.1,1.6,0.8,3.2,2,4.5
				c2.8,2.8,7.2,2.7,10,0c2.8-2.8,2.8-7.2,0-10c-2.4-2.4-6.2-2.7-8.9-0.9l-16.2-7.9c2.5-3.8,6.3-6.1,11.8-7.2l14.4,0l28.9,21.9
				l5.7-7.5l-19-14.4l17.9,0l20.7,15.7l5.7-7.5l-10.8-8.2L267.2,139.2z M118.3,108.9c4.3-1.5,7.8-4.3,10.7-7.5l0,21.8l-13.5-13.5
				C116.4,109.5,117.3,109.3,118.3,108.9z M101.4,129.9c3.2-4.8,4.5-10.5,4.8-16l16,16L101.4,129.9z M102.4,140.4
				c-0.4-0.4-0.8-0.7-1.2-1.1l21,0l-12.5,12.5C108.6,148,106.2,144.1,102.4,140.4z M113.2,161.7l15.7-15.7l0,20.5
				C124.1,163.4,118.3,162.1,113.2,161.7z M138.3,123.2l0.1-25c5.8,5,12.5,6.5,18.7,6.3L138.3,123.2z M151.8,160.4
				c-5.3,1.6-9.9,5.2-13.5,9l0.1-23.5l14.3,14.3C152.3,160.3,152,160.4,151.8,160.4z M164.8,141.4c-2.8,4.3-4,9-4.4,13.3L145,139.3
				l21.3,0C165.8,140,165.2,140.6,164.8,141.4z M145,129.9l18.6-18.6c0.7,6.3,3.6,12.6,8.6,18.6L145,129.9z"/>
		</g>
	</g>
</g>
<a xlink:href="https://es.movember.com/team/1948045" >
	<path d="M234.1,167.1c-3.6-0.9-9.1,13.3-22,13.3c-16.6,0-24.4-28.6-50.3-28.6c-20.6,0-26.8,16.4-28.2,16.4
		c-1.4,0-7.6-16.4-28.2-16.4c-25.9,0-33.7,28.6-50.3,28.6c-12.9,0-18.4-14.3-22-13.3c-3.3,0.9,6.2,49.4,51.5,49.4
		c29.4,0,46.7-23.4,49-23.4c2.2,0,19.5,23.4,49,23.4C227.9,216.5,237.5,167.9,234.1,167.1L234.1,167.1z"/>
</a>
</svg>
