<?xml version="1.0" encoding="utf-8"?>
<!-- Generator: Adobe Illustrator 23.0.1, SVG Export Plug-In . SVG Version: 6.00 Build 0)  -->
<svg version="1.1" id="logo-svg" xmlns:svg="http://www.w3.org/2000/svg"
	 xmlns="http://www.w3.org/2000/svg" xmlns:xlink="http://www.w3.org/1999/xlink" x="0px" y="0px" viewBox="0 0 134.2 134.3"
	 style="enable-background:new 0 0 134.2 134.3;" xml:space="preserve">
<style type="text/css">
	.st0{opacity:0.12;}
	.st1{fill:url(#SVGID_1_);}
</style>
<g>
	<g class="st0">
		<path d="M136.1,70.8l0-4.8l-11.9,0l7.8-7l-3.2-3.6L117,66.1l-9.1,0l11.3-10.1l-3.2-3.5l-15.3,13.7l-5.9,0
			c-0.4-0.4-1.1-0.9-1.8-1.6c-1-1-2.1-2.2-2.9-3.6l10.7-4.6c1.4,1,3.4,0.9,4.7-0.3c1.4-1.4,1.4-3.7,0-5.1c-1.4-1.4-3.7-1.4-5.1,0
			c-0.6,0.6-0.9,1.3-1,2.1l-10.7,4.6c-0.5-2-0.4-4.3,0.8-6.6l3.7-3.7l19.1-2.6l-0.6-4.7l-12.9,1.8l6.4-6.4l13.9-1.9l-0.6-4.7
			l-7.7,1.1l7.3-7.3l-3.4-3.4l-7.9,7.9l0.5-9.6l-4.8-0.3l-0.8,15l-6.5,6.5L96,24.1l-4.8-0.3l-1.1,19.7l-2.4,2.4l-0.9,0.6
			c-0.2,0.1-4.1,2.5-8.3,2L82,34.9c0.6-0.2,1.1-0.4,1.6-0.9c1.4-1.4,1.4-3.7,0-5.1c-1.4-1.4-3.7-1.4-5.1,0c-1.4,1.4-1.4,3.7,0,5.1
			c0,0,0,0,0,0l-3.4,13.2c-0.6-0.4-1.2-0.8-1.7-1.4c-0.9-0.9-1.7-2.1-2.5-3.5l0-6.4l11.6-15.3l-3.8-2.9l-7.8,10.3l0-9L79.4,8
			l-3.8-2.9L71,11.2l0-10.3l-4.8,0l0,11.3L59.7,5l-3.6,3.2l10,11.2l0,9.2l-9.6-10.7L53,20.9l13.2,14.7l0,7c-0.5,1.4-1.8,4.1-3.6,6.1
			L59,37.8c1.3-1.4,1.2-3.6-0.1-4.9c-1.4-1.4-3.7-1.4-5.1,0c-1.4,1.4-1.4,3.7,0,5.1c0.5,0.5,1.1,0.8,1.8,1l3.8,12
			c-0.1,0-0.2,0.1-0.3,0.1c-1.8,0.6-3.8,0.2-6-1.2l-2.6-2.6L48,28.2l-4.7,0.7L45,41.6l-6.4-6.4l-1.9-13.8L32,22.1l1,7.5L22.5,19
			l-3.4,3.4l11.3,11.4l-9.8-0.5L20.4,38l15.1,0.8l6.5,6.5l-14.5-0.8l-0.3,4.8L47,50.3l2.5,2.5c0.2,0.9,0.5,2.7,0.4,4.8l-8.5-3.4
			c-0.2-0.6-0.4-1.1-0.9-1.5c-1.4-1.4-3.7-1.4-5.1,0c-1.4,1.4-1.4,3.7,0,5.1c1.4,1.4,3.7,1.4,5.1,0c0,0,0,0,0,0l8.8,3.5
			c-0.7,2.1-2.1,4-4.6,4.9l-4.7,0L24.9,54.7L22,58.5l10.1,7.7l-9,0l-11-8.3l-2.9,3.8l6,4.5l-14.3,0l0,4.8l15.5,0L9,77.5l3.2,3.5
			l11.4-10.2l9.2,0l-10.9,9.8l3.2,3.5l14.9-13.3l4.5,0c0.1,0,0.1,0.1,0.2,0.1c0.9,0.6,2.5,1.7,4.1,3.1l-8.1,4
			c-1.4-0.9-3.3-0.8-4.5,0.4c-1.4,1.4-1.4,3.7,0,5.1c1.4,1.4,3.7,1.4,5.1,0c0.6-0.6,1-1.4,1-2.3l9-4.4c2.1,3.3,0.4,5.2-0.4,6.1
			l-5.5,5.5l-18.7,2.6l0.6,4.7L39.5,94l-6.4,6.4l-13.5,1.9l0.6,4.7l7.3-1l-8.6,8.6l3.4,3.4l9.6-9.6l-0.6,10l4.8,0.3l0.9-15.3
			l6.5-6.5l-0.8,14.7l4.8,0.3l1.1-20l4.9-4.9c1.4-0.1,3.6-0.2,5.8,0.2l-4,9.6c-0.6,0.2-1.2,0.5-1.7,0.9c-1.4,1.4-1.4,3.7,0,5.1
			c1.4,1.4,3.7,1.4,5,0c1.4-1.4,1.4-3.6,0.1-5l4-9.5c0.7,0.3,1.3,0.8,1.9,1.3c1,1,1.5,2.4,1.5,4.1l0,2.3l0,2.7l-11.2,14.8l3.8,2.9
			l7.4-9.7l0,9L58,126.1l3.8,2.9l4.2-6l0,12.3h4.8l0-14.2l6.9,7.9l3.6-3.1l-10.4-11.6l0-9.1l10,11.2l3.6-3.2L70.8,98l0-3.8
			c0.8-1.5,2.6-4.1,4.7-5.9l3,8.1c0,0,0,0-0.1,0c-1.4,1.4-1.4,3.7,0,5.1c1.4,1.4,3.7,1.4,5.1,0c1.4-1.4,1.4-3.7,0-5.1
			c-0.4-0.4-1-0.7-1.5-0.9l-3.4-9.2c0.1,0,0.3-0.1,0.4-0.1c1.4-0.4,2.8-0.2,4.2,0.5l5.1,5.1l2.6,19.2l4.7-0.7l-1.8-13l6.4,6.4
			l1.9,14.1l4.7-0.7l-1.1-7.9l8.7,8.7l3.4-3.4l-9.1-9.1l9.5,0.5l0.3-4.8l-14.8-0.8l-6.5-6.5l14.2,0.8l0.3-4.8l-19.5-1.1l-5.4-5.4
			c-0.2-1.1-0.4-3.4,0.1-5.7l7.9,3.9c0.1,0.8,0.4,1.6,1,2.3c1.4,1.4,3.7,1.4,5.1,0c1.4-1.4,1.4-3.7,0-5.1c-1.2-1.2-3.1-1.4-4.5-0.4
			l-8.2-4c1.2-1.9,3.2-3.1,6-3.6l7.3,0l14.6,11.1l2.9-3.8l-9.6-7.3l9,0l10.5,7.9l2.9-3.8l-5.5-4.1L136.1,70.8z M60.7,55.5
			c2.2-0.7,4-2.2,5.4-3.8l0,11l-6.8-6.8C59.8,55.8,60.3,55.7,60.7,55.5z M52.2,66.1c1.6-2.4,2.3-5.3,2.4-8.1l8.1,8.1L52.2,66.1z
			 M52.7,71.4c-0.2-0.2-0.4-0.4-0.6-0.5l10.6,0l-6.3,6.3C55.8,75.3,54.6,73.3,52.7,71.4z M58.1,82.2l7.9-7.9l0,10.4
			C63.7,83.1,60.7,82.4,58.1,82.2z M70.9,62.7l0-12.6c3,2.5,6.3,3.3,9.4,3.2L70.9,62.7z M77.7,81.6c-2.7,0.8-5,2.6-6.8,4.6l0-11.9
			l7.2,7.2C77.9,81.5,77.8,81.5,77.7,81.6z M84.2,71.9c-1.4,2.2-2,4.6-2.2,6.7l-7.8-7.8l10.8,0C84.8,71.2,84.5,71.5,84.2,71.9z
			 M74.2,66.1l9.4-9.4c0.3,3.2,1.8,6.4,4.3,9.4L74.2,66.1z"/>
	</g>
	<g>
		<g>
			<linearGradient id="SVGID_1_" gradientUnits="userSpaceOnUse" x1="19.8608" y1="19.8593" x2="115.3299" y2="115.3284">
				<stop  offset="0" style="stop-color:#F9F9FA"/>
				<stop  offset="0.6617" style="stop-color:#E2E2E3"/>
				<stop  offset="1" style="stop-color:#D4D4D5"/>
			</linearGradient>
			<path class="st1" d="M135.2,69.9l0-4.8l-11.9,0l7.8-7l-3.2-3.6l-11.8,10.6l-9.1,0L118.3,55l-3.2-3.5L99.8,65.2l-5.9,0
				c-0.4-0.4-1.1-0.9-1.8-1.6c-1-1-2.1-2.2-2.9-3.6l10.7-4.6c1.4,1,3.4,0.9,4.7-0.3c1.4-1.4,1.4-3.7,0-5.1c-1.4-1.4-3.7-1.4-5.1,0
				c-0.6,0.6-0.9,1.3-1,2.1l-10.7,4.6c-0.5-2-0.4-4.3,0.8-6.6l3.7-3.7l19.1-2.6l-0.6-4.7l-12.9,1.8l6.4-6.4l13.9-1.9l-0.6-4.7
				l-7.7,1.1l7.3-7.3l-3.4-3.4l-7.9,7.9l0.5-9.6l-4.8-0.3l-0.8,15l-6.5,6.5l0.8-14.3l-4.8-0.3l-1.1,19.7L86.9,45l-0.9,0.6
				c-0.2,0.1-4.1,2.5-8.3,2L81.1,34c0.6-0.2,1.1-0.4,1.6-0.9c1.4-1.4,1.4-3.7,0-5.1c-1.4-1.4-3.7-1.4-5.1,0c-1.4,1.4-1.4,3.7,0,5.1
				c0,0,0,0,0,0l-3.4,13.2c-0.6-0.4-1.2-0.8-1.7-1.4c-0.9-0.9-1.7-2.1-2.5-3.5l0-6.4l11.6-15.3L77.8,17L70,27.3l0-9l8.5-11.2
				l-3.8-2.9l-4.7,6.1l0-10.3l-4.8,0l0,11.3l-6.5-7.2l-3.6,3.2l10,11.2l0,9.2l-9.6-10.7L52.1,20l13.2,14.7l0,7
				c-0.5,1.4-1.8,4.1-3.6,6.1l-3.5-10.8c1.3-1.4,1.2-3.6-0.1-4.9c-1.4-1.4-3.7-1.4-5.1,0c-1.4,1.4-1.4,3.7,0,5.1
				c0.5,0.5,1.1,0.8,1.8,1l3.8,12c-0.1,0-0.2,0.1-0.3,0.1c-1.8,0.6-3.8,0.2-6-1.2l-2.6-2.6l-2.6-18.9L42.4,28l1.7,12.7l-6.4-6.4
				l-1.9-13.8l-4.7,0.7l1,7.5L21.6,18.1l-3.4,3.4l11.3,11.4l-9.8-0.5l-0.3,4.8l15.1,0.8l6.5,6.5l-14.5-0.8l-0.3,4.8l19.8,1.1
				l2.5,2.5c0.2,0.9,0.5,2.7,0.4,4.8l-8.5-3.4c-0.2-0.6-0.4-1.1-0.9-1.5c-1.4-1.4-3.7-1.4-5.1,0c-1.4,1.4-1.4,3.7,0,5.1
				c1.4,1.4,3.7,1.4,5.1,0c0,0,0,0,0,0l8.8,3.5c-0.7,2.1-2.1,4-4.6,4.9l-4.7,0L24,53.8l-2.9,3.8l10.1,7.7l-9,0l-11-8.3l-2.9,3.8
				l6,4.5L0,65.3L0,70l15.5,0l-7.4,6.6l3.2,3.5L22.6,70l9.2,0l-10.9,9.8l3.2,3.5L38.9,70l4.5,0c0.1,0,0.1,0.1,0.2,0.1
				c0.9,0.6,2.5,1.7,4.1,3.1l-8.1,4c-1.4-0.9-3.3-0.8-4.5,0.4c-1.4,1.4-1.4,3.7,0,5.1c1.4,1.4,3.7,1.4,5.1,0c0.6-0.6,1-1.4,1-2.3
				l9-4.4c2.1,3.3,0.4,5.2-0.4,6.1l-5.5,5.5l-18.7,2.6l0.6,4.7l12.5-1.7l-6.4,6.4l-13.5,1.9l0.6,4.7l7.3-1l-8.6,8.6l3.4,3.4l9.6-9.6
				l-0.6,10l4.8,0.3l0.9-15.3l6.5-6.5l-0.8,14.7l4.8,0.3l1.1-20l4.9-4.9c1.4-0.1,3.6-0.2,5.8,0.2l-4,9.6c-0.6,0.2-1.2,0.5-1.7,0.9
				c-1.4,1.4-1.4,3.7,0,5.1c1.4,1.4,3.7,1.4,5,0c1.4-1.4,1.4-3.6,0.1-5l4-9.5c0.7,0.3,1.3,0.8,1.9,1.3c1,1,1.5,2.4,1.5,4.1l0,2.3
				l0,2.7L54,112.4l3.8,2.9l7.4-9.7l0,9l-8.1,10.6l3.8,2.9l4.2-6l0,12.3h4.8l0-14.2l6.9,7.9l3.6-3.1l-10.4-11.6l0-9.1l10,11.2
				l3.6-3.2L69.9,97.1l0-3.8c0.8-1.5,2.6-4.1,4.7-5.9l3,8.1c0,0,0,0-0.1,0c-1.4,1.4-1.4,3.7,0,5.1c1.4,1.4,3.7,1.4,5.1,0
				c1.4-1.4,1.4-3.7,0-5.1c-0.4-0.4-1-0.7-1.5-0.9l-3.4-9.2c0.1,0,0.3-0.1,0.4-0.1c1.4-0.4,2.8-0.2,4.2,0.5l5.1,5.1l2.6,19.2
				l4.7-0.7l-1.8-13l6.4,6.4l1.9,14.1l4.7-0.7l-1.1-7.9l8.7,8.7l3.4-3.4l-9.1-9.1l9.5,0.5l0.3-4.8l-14.8-0.8L96.4,93l14.2,0.8
				l0.3-4.8L91.4,88L86,82.6c-0.2-1.1-0.4-3.4,0.1-5.7l7.9,3.9c0.1,0.8,0.4,1.6,1,2.3c1.4,1.4,3.7,1.4,5.1,0c1.4-1.4,1.4-3.7,0-5.1
				c-1.2-1.2-3.1-1.4-4.5-0.4l-8.2-4c1.2-1.9,3.2-3.1,6-3.6l7.3,0L115.2,81l2.9-3.8l-9.6-7.3l9,0l10.5,7.9l2.9-3.8l-5.5-4.1
				L135.2,69.9z M59.8,54.6c2.2-0.7,4-2.2,5.4-3.8l0,11L58.4,55C58.9,54.9,59.4,54.8,59.8,54.6z M51.3,65.2c1.6-2.4,2.3-5.3,2.4-8.1
				l8.1,8.1L51.3,65.2z M51.8,70.5c-0.2-0.2-0.4-0.4-0.6-0.5l10.6,0l-6.3,6.3C54.9,74.4,53.7,72.4,51.8,70.5z M57.3,81.3l7.9-7.9
				l0,10.4C62.8,82.2,59.8,81.5,57.3,81.3z M70,61.8l0-12.6c3,2.5,6.3,3.3,9.4,3.2L70,61.8z M76.8,80.7c-2.7,0.8-5,2.6-6.8,4.6
				l0-11.9l7.2,7.2C77.1,80.6,76.9,80.6,76.8,80.7z M83.4,71c-1.4,2.2-2,4.6-2.2,6.7L73.3,70l10.8,0C83.9,70.3,83.6,70.6,83.4,71z
				 M73.4,65.2l9.4-9.4c0.3,3.2,1.8,6.4,4.3,9.4L73.4,65.2z"/>
		</g>
	</g>
</g>
</svg>
