<?xml version="1.0" encoding="utf-8"?>
<!-- Generator: Adobe Illustrator 23.0.1, SVG Export Plug-In . SVG Version: 6.00 Build 0)  -->
<svg version="1.1" id="Layer_1" xmlns:svg="http://www.w3.org/2000/svg"
	 xmlns="http://www.w3.org/2000/svg" xmlns:xlink="http://www.w3.org/1999/xlink" x="0px" y="0px" viewBox="0 0 267.2 267.2"
	 style="enable-background:new 0 0 267.2 267.2;" xml:space="preserve">
<style type="text/css">
	.st0{opacity:0.12;}
	.st1{fill:url(#SVGID_1_);}
</style>
<g>
	<g class="st0">
		<path d="M269.4,139.8l0-9.5l-23.7,0l15.5-13.9l-6.3-7.1l-23.4,21l-18.2,0l22.5-20.1l-6.3-7l-30.4,27.2l-11.8,0
			c-0.9-0.7-2.2-1.8-3.6-3.3c-2.1-2.1-4.1-4.5-5.7-7.1l21.3-9.1c2.8,2.1,6.7,1.9,9.2-0.7c2.8-2.8,2.8-7.3,0-10
			c-2.8-2.8-7.3-2.8-10,0c-1.2,1.2-1.8,2.6-2,4.2l-21.3,9.1c-1-4.1-0.9-8.5,1.5-13.2l7.4-7.4l37.9-5.3l-1.3-9.4l-25.5,3.5l12.7-12.7
			l27.7-3.8l-1.3-9.4L219,58l14.5-14.5l-6.7-6.7l-15.7,15.7l1.1-19.1l-9.4-0.5l-1.7,29.7l-12.9,12.9l1.6-28.5l-9.4-0.5l-2.2,39
			l-4.8,4.8l-1.8,1.1c-0.5,0.3-8.2,5-16.5,3.9l7-26.9c1.1-0.3,2.2-0.9,3.1-1.8c2.8-2.8,2.8-7.3,0-10c-2.8-2.8-7.3-2.8-10,0
			c-2.8,2.8-2.8,7.3,0,10c0,0,0,0,0,0L148.4,93c-1.2-0.7-2.4-1.6-3.5-2.7c-1.8-1.8-3.5-4.2-4.9-6.9l0-12.6L163,40.3l-7.5-5.7
			L140,55.1l0-18L156.9,15l-7.5-5.7l-9.2,12.2l0-20.5l-9.5,0l0,22.5L117.8,9l-7.1,6.3l19.9,22.2l0,18.2l-19.1-21.3l-7.1,6.3
			l26.1,29.2l0,13.8c-1.1,2.9-3.6,8.1-7.2,12.1l-6.9-21.5c2.5-2.8,2.5-7.1-0.2-9.8c-2.8-2.8-7.3-2.8-10,0c-2.8,2.8-2.8,7.3,0,10
			c1,1,2.2,1.6,3.5,1.9l7.6,23.8c-0.2,0.1-0.4,0.2-0.5,0.2c-3.6,1.2-7.6,0.4-12-2.4l-5.2-5.2l-5.1-37.6L85,56.5l3.4,25.2L75.8,69
			l-3.7-27.3L62.7,43l2,15l-21-21L37,43.6l22.5,22.5l-19.5-1.1l-0.5,9.5l30,1.6L82.4,89l-28.8-1.6l-0.5,9.5l39.3,2.1l5,5
			c0.4,1.8,0.9,5.4,0.8,9.4l-16.9-6.7c-0.3-1.1-0.9-2.2-1.8-3c-2.8-2.8-7.3-2.8-10,0c-2.8,2.8-2.8,7.3,0,10c2.8,2.8,7.3,2.8,10,0
			c0,0,0,0,0,0l17.5,6.9c-1.3,4.2-4.1,7.9-9.2,9.7l-9.4,0l-30-22.8l-5.7,7.5l20.1,15.2l-18,0L23.1,114l-5.7,7.5l11.9,9l-28.3,0
			l0,9.5l30.8,0L17,153.1l6.3,7l22.5-20.2l18.2,0l-21.6,19.4l6.3,7l29.5-26.4l8.9,0c0.1,0.1,0.2,0.2,0.4,0.3
			c1.9,1.2,5.1,3.3,8.1,6.1l-16.2,7.9c-2.8-1.9-6.5-1.6-9,0.9c-2.8,2.8-2.8,7.3,0,10c2.8,2.8,7.3,2.8,10,0c1.3-1.3,1.9-2.9,2-4.5
			l18-8.8c4.2,6.5,0.8,10.3-0.8,12.1l-10.9,10.9L51.6,180l1.3,9.4l24.7-3.4l-12.7,12.7L38,202.4l1.3,9.4l14.5-2l-17.1,17.1l6.7,6.7
			l19.1-19.1l-1.1,19.9l9.4,0.5l1.7-30.4l12.9-12.9l-1.7,29.2l9.4,0.5l2.3-39.8l9.7-9.7c2.8-0.3,7.2-0.3,11.6,0.4l-7.9,19
			c-1.2,0.3-2.4,0.9-3.3,1.8c-2.8,2.8-2.8,7.3,0,10c2.8,2.8,7.3,2.8,10,0c2.7-2.7,2.8-7.1,0.2-9.9l7.9-18.9c1.4,0.7,2.7,1.5,3.7,2.5
			c2,2,3,4.7,3,8.2l0,4.6l0,5.3l-22.2,29.3l7.5,5.7l14.7-19.3l0,18l-16,21.1l7.5,5.7l8.4-12l-0.1,24.4h9.5l0-28.3l13.7,15.7l7.1-6.1
			L139.7,226l0-18.1l19.9,22.3l7.1-6.3l-26.9-30.1l0-7.6c1.7-3,5.1-8.1,9.4-11.8l5.9,16.1c0,0-0.1,0.1-0.1,0.1
			c-2.8,2.8-2.8,7.3,0,10c2.8,2.8,7.3,2.8,10,0c2.8-2.8,2.8-7.3,0-10c-0.9-0.9-1.9-1.4-3-1.8l-6.7-18.3c0.3-0.1,0.5-0.2,0.8-0.3
			c2.8-0.8,5.6-0.5,8.4,1l10.1,10.1l5.2,38.2l9.4-1.3l-3.5-25.8l12.7,12.7l3.8,28l9.4-1.3l-2.1-15.6l17.2,17.2l6.7-6.7l-18.1-18.1
			l18.8,1l0.5-9.5l-29.4-1.6l-12.8-12.8l28.2,1.5l0.5-9.4l-38.7-2.1L171.7,165c-0.3-2.1-0.8-6.7,0.1-11.3l15.8,7.7
			c0.1,1.6,0.8,3.3,2,4.5c2.8,2.8,7.3,2.8,10,0c2.8-2.8,2.8-7.3,0-10c-2.4-2.4-6.2-2.7-9-0.9l-16.3-8c2.5-3.8,6.4-6.1,11.8-7.2
			l14.5,0l29,22l5.7-7.5l-19.1-14.5l18,0l20.8,15.8l5.7-7.5l-10.8-8.2L269.4,139.8z M119.8,109.4c4.3-1.5,7.9-4.3,10.7-7.5l0,21.9
			l-13.6-13.6C117.8,110,118.8,109.7,119.8,109.4z M102.8,130.4c3.2-4.8,4.6-10.6,4.9-16.1l16.1,16.1L102.8,130.4z M103.8,141
			c-0.4-0.4-0.8-0.7-1.2-1.1l21.1,0l-12.6,12.5C110,148.6,107.6,144.7,103.8,141z M114.6,162.3l15.8-15.8l0,20.6
			C125.6,164.1,119.7,162.8,114.6,162.3z M139.9,123.7l0.1-25.1c5.9,5,12.6,6.5,18.8,6.3L139.9,123.7z M153.4,161.1
			c-5.4,1.6-10,5.2-13.6,9.1l0.1-23.6l14.3,14.4C153.9,161,153.7,161,153.4,161.1z M166.5,141.9c-2.8,4.3-4,9.1-4.5,13.4l-15.4-15.5
			l21.5,0C167.5,140.5,166.9,141.2,166.5,141.9z M146.6,130.4l18.7-18.7c0.7,6.3,3.6,12.7,8.6,18.7L146.6,130.4z"/>
	</g>
	<g>
		<g>
			<linearGradient id="SVGID_1_" gradientUnits="userSpaceOnUse" x1="39.4475" y1="39.4446" x2="229.0686" y2="229.0656">
				<stop  offset="0" style="stop-color:#F9F9FA"/>
				<stop  offset="0.6617" style="stop-color:#E2E2E3"/>
				<stop  offset="1" style="stop-color:#D4D4D5"/>
			</linearGradient>
			<path class="st1" d="M268.5,138.9l0-9.5l-23.7,0l15.5-13.9l-6.3-7.1l-23.4,21l-18.2,0l22.5-20.1l-6.3-7l-30.4,27.2l-11.8,0
				c-0.9-0.7-2.2-1.8-3.6-3.3c-2.1-2.1-4.1-4.5-5.7-7.1l21.3-9.1c2.8,2.1,6.7,1.9,9.2-0.7c2.8-2.8,2.8-7.3,0-10
				c-2.8-2.8-7.3-2.8-10,0c-1.2,1.2-1.8,2.6-2,4.2l-21.3,9.1c-1-4.1-0.9-8.5,1.5-13.2l7.4-7.4l37.9-5.3l-1.3-9.4l-25.5,3.5L207,68.2
				l27.7-3.8l-1.3-9.4l-15.3,2.1l14.5-14.5l-6.7-6.7l-15.7,15.7l1.1-19.1l-9.4-0.5l-1.7,29.7l-12.9,12.9l1.6-28.5l-9.4-0.5l-2.2,39
				l-4.8,4.8l-1.8,1.1c-0.5,0.3-8.2,5-16.5,3.9l7-26.9c1.1-0.3,2.2-0.9,3.1-1.8c2.8-2.8,2.8-7.3,0-10c-2.8-2.8-7.3-2.8-10,0
				c-2.8,2.8-2.8,7.3,0,10c0,0,0,0,0,0l-6.8,26.3c-1.2-0.7-2.4-1.6-3.5-2.7c-1.8-1.8-3.5-4.2-4.9-6.9l0-12.6l23.1-30.4l-7.5-5.7
				l-15.5,20.4l0-18L156,14.1l-7.5-5.7l-9.2,12.2l0-20.5l-9.5,0l0,22.5L116.9,8.1l-7.1,6.3l19.9,22.2l0,18.2l-19.1-21.3l-7.1,6.3
				L129.6,69l0,13.8c-1.1,2.9-3.6,8.1-7.2,12.1l-6.9-21.5c2.5-2.8,2.5-7.1-0.2-9.8c-2.8-2.8-7.3-2.8-10,0c-2.8,2.8-2.8,7.3,0,10
				c1,1,2.2,1.6,3.5,1.9l7.6,23.8c-0.2,0.1-0.4,0.2-0.5,0.2c-3.6,1.2-7.6,0.4-12-2.4l-5.2-5.2l-5.1-37.6l-9.4,1.3l3.4,25.2
				L74.9,68.1l-3.7-27.3l-9.4,1.3l2,15l-21-21l-6.7,6.7l22.5,22.5l-19.5-1.1l-0.5,9.5l30,1.6l12.8,12.8l-28.8-1.6L52.2,96l39.3,2.1
				l5,5c0.4,1.8,0.9,5.4,0.8,9.4L80.5,106c-0.3-1.1-0.9-2.2-1.8-3c-2.8-2.8-7.3-2.8-10,0c-2.8,2.8-2.8,7.3,0,10
				c2.8,2.8,7.3,2.8,10,0c0,0,0,0,0,0l17.5,6.9c-1.3,4.2-4.1,7.9-9.2,9.7l-9.4,0l-30-22.8l-5.7,7.5L62,129.6l-18,0l-21.8-16.5
				l-5.7,7.5l11.9,9l-28.3,0l0,9.5l30.8,0l-14.7,13.1l6.3,7L45,139.1l18.2,0l-21.6,19.4l6.3,7L77.3,139l8.9,0
				c0.1,0.1,0.2,0.2,0.4,0.3c1.9,1.2,5.1,3.3,8.1,6.1l-16.2,7.9c-2.8-1.9-6.5-1.6-9,0.9c-2.8,2.8-2.8,7.3,0,10c2.8,2.8,7.3,2.8,10,0
				c1.3-1.3,1.9-2.9,2-4.5l18-8.8c4.2,6.5,0.8,10.3-0.8,12.1l-10.9,10.9l-37.1,5.2l1.3,9.4l24.7-3.4L64,197.7l-26.9,3.7l1.3,9.4
				l14.5-2l-17.1,17.1l6.7,6.7l19.1-19.1l-1.1,19.9l9.4,0.5l1.7-30.4l12.9-12.9l-1.7,29.2l9.4,0.5l2.3-39.8l9.7-9.7
				c2.8-0.3,7.2-0.3,11.6,0.4l-7.9,19c-1.2,0.3-2.4,0.9-3.3,1.8c-2.8,2.8-2.8,7.3,0,10c2.8,2.8,7.3,2.8,10,0
				c2.7-2.7,2.8-7.1,0.2-9.9l7.9-18.9c1.4,0.7,2.7,1.5,3.7,2.5c2,2,3,4.7,3,8.2l0,4.6l0,5.3l-22.2,29.3l7.5,5.7l14.7-19.3l0,18
				l-16,21.1l7.5,5.7l8.4-12l-0.1,24.4h9.5l0-28.3l13.7,15.7l7.1-6.1l-20.7-23.1l0-18.1l19.9,22.3l7.1-6.3l-26.9-30.1l0-7.6
				c1.7-3,5.1-8.1,9.4-11.8l5.9,16.1c0,0-0.1,0.1-0.1,0.1c-2.8,2.8-2.8,7.3,0,10c2.8,2.8,7.3,2.8,10,0c2.8-2.8,2.8-7.3,0-10
				c-0.9-0.9-1.9-1.4-3-1.8l-6.7-18.3c0.3-0.1,0.5-0.2,0.8-0.3c2.8-0.8,5.6-0.5,8.4,1l10.1,10.1l5.2,38.2l9.4-1.3l-3.5-25.8
				l12.7,12.7l3.8,28l9.4-1.3l-2.1-15.6l17.2,17.2l6.7-6.7l-18.1-18.1l18.8,1l0.5-9.5l-29.4-1.6l-12.8-12.8l28.2,1.5l0.5-9.4
				l-38.7-2.1l-10.7-10.7c-0.3-2.1-0.8-6.7,0.1-11.3l15.8,7.7c0.1,1.6,0.8,3.3,2,4.5c2.8,2.8,7.3,2.8,10,0c2.8-2.8,2.8-7.3,0-10
				c-2.4-2.4-6.2-2.7-9-0.9l-16.3-8c2.5-3.8,6.4-6.1,11.8-7.2l14.5,0l29,22l5.7-7.5l-19.1-14.5l18,0l20.8,15.8l5.7-7.5l-10.8-8.2
				L268.5,138.9z M118.9,108.5c4.3-1.5,7.9-4.3,10.7-7.5l0,21.9L116,109.2C116.9,109.1,117.9,108.8,118.9,108.5z M101.9,129.6
				c3.2-4.8,4.6-10.6,4.9-16.1l16.1,16.1L101.9,129.6z M102.9,140.1c-0.4-0.4-0.8-0.7-1.2-1.1l21.1,0l-12.6,12.5
				C109.1,147.7,106.7,143.8,102.9,140.1z M113.7,161.4l15.8-15.8l0,20.6C124.7,163.2,118.8,161.9,113.7,161.4z M139,122.8l0.1-25.1
				c5.9,5,12.6,6.5,18.8,6.3L139,122.8z M152.5,160.2c-5.4,1.6-10,5.2-13.6,9.1l0.1-23.6l14.3,14.4
				C153,160.1,152.8,160.1,152.5,160.2z M165.6,141.1c-2.8,4.3-4,9.1-4.5,13.4L145.7,139l21.5,0C166.6,139.6,166,140.3,165.6,141.1z
				 M145.7,129.5l18.7-18.7c0.7,6.3,3.6,12.7,8.6,18.7L145.7,129.5z"/>
		</g>
	</g>
</g>
</svg>
